<svg width="220" height="72" viewBox="0 0 220 72" fill="none" xmlns="http://www.w3.org/2000/svg">
<path d="M98.7807 39.9411V50.3613C98.7807 51.3345 97.9974 52.121 97.0281 52.121C96.0588 52.121 95.2755 51.3345 95.2755 50.3613V40.1868C95.2755 39.0858 95.2755 38.1814 95.1972 37.0804C94.9916 34.5442 93.611 32.6665 90.2723 32.6665C86.9336 32.6665 84.0452 35.2028 84.0452 42.5953V50.3613C84.0452 51.3345 83.2619 52.121 82.2926 52.121C81.3233 52.121 80.54 51.3345 80.54 50.3613V32.2242C80.54 31.251 81.3233 30.4645 82.2926 30.4645C83.2619 30.4645 84.0452 31.251 84.0452 32.2242V34.1804L85.3866 31.6835C87.2175 30.2581 88.8037 29.8845 90.9968 29.8845C95.7161 29.8845 98.3597 32.4208 98.6828 36.2153C98.7611 37.3163 98.7611 38.1716 98.7611 39.9312L98.7807 39.9411Z" fill="black"/>
<path d="M123.124 51.5507C122.154 51.5507 121.371 50.7643 121.371 49.7911V48.0708L119.746 50.4006C118.522 51.4229 116.25 52.1209 114.047 52.1209C107.742 52.1209 104.247 47.3826 104.247 41.0518C104.247 33.0498 109.211 29.3339 114.782 29.3339C116.573 29.3339 118.855 29.8648 119.951 30.7593L121.371 32.8827V23.2882C121.371 22.315 122.154 21.5286 123.124 21.5286C124.093 21.5286 124.876 22.315 124.876 23.2882V49.8009C124.876 50.7741 124.093 51.5606 123.124 51.5606V51.5507ZM121.371 40.9339V39.7444C121.371 34.1509 117.876 32.0275 114.782 32.0275C111.002 32.0275 108.065 34.9668 108.065 40.6488C108.065 45.5542 110.258 49.4274 114.576 49.4274C118.16 49.4274 121.371 47.1369 121.371 40.9339Z" fill="black"/>
<path d="M148.96 52.1211H131.708V23.9373H148.549C149.332 23.9373 149.969 24.5762 149.969 25.3627C149.969 26.1491 149.332 26.7979 148.549 26.7979H135.204V36.5989H147.325C148.108 36.5989 148.745 37.2378 148.745 38.0243C148.745 38.8107 148.108 39.4497 147.325 39.4497H135.204V49.2506H148.95C149.734 49.2506 150.37 49.8896 150.37 50.6761C150.37 51.4625 149.734 52.1113 148.95 52.1113L148.96 52.1211Z" fill="black"/>
<path d="M168.02 48.4444L166.835 50.7742C165.367 51.7966 163.497 52.121 161.421 52.121C157.514 52.121 154.469 49.9583 154.469 45.9573C154.469 41.0519 158.131 38.5255 166.591 38.5255H167.971V37.9553C167.971 37.0116 167.971 36.1564 167.893 35.3405C167.726 33.335 166.591 32.0276 163.702 32.0276C161.235 32.0276 159.805 33.1581 159.277 35.2913C159.081 36.0679 158.366 36.5987 157.563 36.5987C156.33 36.5987 155.468 35.3601 155.889 34.1903C156.995 31.0642 159.845 29.3242 163.702 29.3242C168.833 29.3242 170.987 31.4869 171.349 35.0455C171.427 35.9008 171.466 36.9625 171.466 37.9062V46.036C171.466 47.6678 171.545 49.1424 171.878 51.5508H168.382L168.02 48.4444ZM167.981 43.3424V41.1404C162.038 40.6882 158.298 41.9563 158.298 45.6722C158.298 48.2871 159.962 49.4275 162.606 49.4275C165.856 49.4275 167.971 47.2648 167.971 43.3424H167.981Z" fill="black"/>
<path d="M190.879 36.0774H190.702C189.968 36.0774 189.341 35.5859 189.077 34.8978C188.382 33.0791 186.952 32.0371 184.857 32.0371C182.419 32.0371 181.274 33.3839 181.274 35.2615C181.274 37.4242 183.065 38.2794 185.993 39.056C190.957 40.3635 193.317 42.3198 193.317 45.9963C193.317 50.0858 189.86 52.1207 185.298 52.1207C181.695 52.1207 178.797 50.7739 177.485 47.6479C176.995 46.478 177.837 45.1804 179.1 45.1804H179.159C179.922 45.1804 180.559 45.6916 180.833 46.4092C181.655 48.6211 183.418 49.4272 185.552 49.4272C187.873 49.4272 189.743 48.3655 189.743 46.2814C189.743 44.1974 188.274 43.0964 184.661 42.1133C180.794 41.0516 177.71 39.4591 177.71 35.6645C177.71 31.87 180.716 29.3337 185.151 29.3337C188.94 29.3337 191.388 31.0344 192.484 33.6788C192.954 34.8191 192.122 36.0676 190.898 36.0676L190.879 36.0774Z" fill="black"/>
<path d="M216.822 41.7794H201.195C201.518 47.5007 204.211 49.4176 207.383 49.4176C210.193 49.4176 212.465 47.658 212.954 44.5614H216.616C215.764 49.7912 211.652 52.121 207.217 52.121C201.607 52.121 197.416 48.4444 197.416 40.8062C197.416 33.7774 201.773 29.3242 207.667 29.3242C213.561 29.3242 216.9 33.7774 216.9 40.1082C216.9 40.4326 216.9 41.0028 216.822 41.7794ZM201.244 39.0858H213.366C213.042 34.5933 211.123 32.0178 207.589 32.0178C204.054 32.0178 201.646 34.4655 201.244 39.0858Z" fill="black"/>
<path d="M72.1557 26.1819C73.3994 26.1819 74.4077 25.1696 74.4077 23.9209C74.4077 22.6722 73.3994 21.6599 72.1557 21.6599C70.912 21.6599 69.9038 22.6722 69.9038 23.9209C69.9038 25.1696 70.912 26.1819 72.1557 26.1819Z" fill="black"/>
<path d="M5.82154 21.6795C0.0056806 41.6353 2.64925 49.0179 2.64925 49.0179C2.64925 49.0179 19.7052 -1.20579 28.6836 2.2447C37.6619 5.69518 31.4446 44.958 31.4446 44.958C31.4446 44.958 46.6501 3.32605 58.3993 2.07758C70.1485 0.838945 49.0587 40.9668 52.3289 62.7118C54.5906 77.7622 72.2242 66.1229 72.2242 31.8933" stroke="black" stroke-width="4.09929" stroke-linecap="round" stroke-linejoin="round"/>
</svg>
